<svg width="70" height="14" viewBox="0 0 70 14" fill="none" xmlns="http://www.w3.org/2000/svg">
<path d="M8.892 3.964C8.856 3.904 8.73 3.814 8.514 3.694C8.298 3.562 8.028 3.424 7.704 3.28C7.38 3.136 7.026 3.01 6.642 2.902C6.258 2.794 5.874 2.74 5.49 2.74C4.986 2.74 4.596 2.83 4.32 3.01C4.044 3.178 3.906 3.442 3.906 3.802C3.906 4.09 4.008 4.318 4.212 4.486C4.428 4.654 4.734 4.804 5.13 4.936C5.526 5.056 6.012 5.2 6.588 5.368C7.404 5.584 8.112 5.848 8.712 6.16C9.312 6.46 9.768 6.85 10.08 7.33C10.404 7.81 10.566 8.446 10.566 9.238C10.566 9.958 10.434 10.57 10.17 11.074C9.906 11.566 9.546 11.968 9.09 12.28C8.646 12.58 8.136 12.802 7.56 12.946C6.984 13.078 6.39 13.144 5.778 13.144C5.154 13.144 4.512 13.084 3.852 12.964C3.204 12.832 2.58 12.652 1.98 12.424C1.38 12.184 0.828 11.896 0.324 11.56L1.62 8.986C1.668 9.046 1.824 9.16 2.088 9.328C2.352 9.484 2.676 9.652 3.06 9.832C3.456 10 3.894 10.15 4.374 10.282C4.854 10.414 5.34 10.48 5.832 10.48C6.36 10.48 6.75 10.396 7.002 10.228C7.266 10.06 7.398 9.826 7.398 9.526C7.398 9.202 7.26 8.95 6.984 8.77C6.72 8.59 6.354 8.428 5.886 8.284C5.43 8.14 4.902 7.978 4.302 7.798C3.522 7.558 2.874 7.288 2.358 6.988C1.854 6.688 1.476 6.322 1.224 5.89C0.984 5.458 0.864 4.918 0.864 4.27C0.864 3.37 1.074 2.614 1.494 2.002C1.926 1.378 2.502 0.909999 3.222 0.598C3.942 0.274 4.728 0.112 5.58 0.112C6.18 0.112 6.756 0.183999 7.308 0.327999C7.872 0.471999 8.394 0.651999 8.874 0.868C9.366 1.084 9.804 1.3 10.188 1.516L8.892 3.964ZM22.5762 2.812H18.6882V13H15.7362V2.812H11.8302V0.219999H22.5762V2.812ZM30.0479 13.108C29.0279 13.108 28.1579 12.94 27.4379 12.604C26.7179 12.256 26.1299 11.788 25.6739 11.2C25.2299 10.6 24.8999 9.922 24.6839 9.166C24.4799 8.398 24.3779 7.594 24.3779 6.754V0.219999H27.3299V6.754C27.3299 7.234 27.3779 7.702 27.4739 8.158C27.5699 8.602 27.7259 8.998 27.9419 9.346C28.1579 9.694 28.4339 9.97 28.7699 10.174C29.1179 10.378 29.5439 10.48 30.0479 10.48C30.5639 10.48 30.9959 10.378 31.3439 10.174C31.6919 9.958 31.9679 9.676 32.1719 9.328C32.3759 8.968 32.5259 8.566 32.6219 8.122C32.7179 7.678 32.7659 7.222 32.7659 6.754V0.219999H35.7179V6.754C35.7179 7.642 35.6039 8.47 35.3759 9.238C35.1599 10.006 34.8239 10.684 34.3679 11.272C33.9119 11.848 33.3239 12.298 32.6039 12.622C31.8959 12.946 31.0439 13.108 30.0479 13.108ZM38.5452 13V0.219999H43.3152C44.7192 0.219999 45.8892 0.507999 46.8252 1.084C47.7732 1.648 48.4872 2.416 48.9672 3.388C49.4472 4.348 49.6872 5.416 49.6872 6.592C49.6872 7.888 49.4232 9.016 48.8952 9.976C48.3672 10.936 47.6232 11.68 46.6632 12.208C45.7152 12.736 44.5992 13 43.3152 13H38.5452ZM46.6812 6.592C46.6812 5.848 46.5492 5.194 46.2852 4.63C46.0212 4.054 45.6372 3.61 45.1332 3.298C44.6292 2.974 44.0232 2.812 43.3152 2.812H41.4972V10.408H43.3152C44.0352 10.408 44.6412 10.246 45.1332 9.922C45.6372 9.586 46.0212 9.13 46.2852 8.554C46.5492 7.966 46.6812 7.312 46.6812 6.592ZM51.9699 13V0.219999H54.9219V13H51.9699ZM63.5044 13.108C62.5444 13.108 61.6744 12.928 60.8944 12.568C60.1264 12.196 59.4604 11.704 58.8964 11.092C58.3444 10.468 57.9184 9.772 57.6184 9.004C57.3184 8.224 57.1684 7.42 57.1684 6.592C57.1684 5.74 57.3244 4.93 57.6364 4.162C57.9604 3.394 58.4044 2.71 58.9684 2.11C59.5444 1.498 60.2224 1.018 61.0024 0.669999C61.7824 0.321999 62.6344 0.147999 63.5584 0.147999C64.5064 0.147999 65.3644 0.333999 66.1324 0.705999C66.9124 1.066 67.5784 1.558 68.1304 2.182C68.6944 2.806 69.1264 3.508 69.4264 4.288C69.7264 5.056 69.8764 5.842 69.8764 6.646C69.8764 7.498 69.7204 8.308 69.4084 9.076C69.0964 9.844 68.6524 10.534 68.0764 11.146C67.5004 11.746 66.8224 12.226 66.0424 12.586C65.2744 12.934 64.4284 13.108 63.5044 13.108ZM60.1744 6.628C60.1744 7.12 60.2464 7.6 60.3904 8.068C60.5344 8.524 60.7444 8.932 61.0204 9.292C61.3084 9.652 61.6624 9.94 62.0824 10.156C62.5024 10.372 62.9824 10.48 63.5224 10.48C64.0864 10.48 64.5784 10.372 64.9984 10.156C65.4184 9.928 65.7664 9.628 66.0424 9.256C66.3184 8.884 66.5224 8.47 66.6544 8.014C66.7984 7.546 66.8704 7.072 66.8704 6.592C66.8704 6.1 66.7984 5.626 66.6544 5.17C66.5104 4.714 66.2944 4.306 66.0064 3.946C65.7184 3.574 65.3644 3.286 64.9444 3.082C64.5244 2.878 64.0504 2.776 63.5224 2.776C62.9584 2.776 62.4664 2.884 62.0464 3.1C61.6384 3.316 61.2904 3.61 61.0024 3.982C60.7264 4.342 60.5164 4.756 60.3724 5.224C60.2404 5.68 60.1744 6.148 60.1744 6.628Z" fill="#2E2F42"/>
</svg>
