<svg width="44" height="13" viewBox="0 0 44 13" fill="none" xmlns="http://www.w3.org/2000/svg">
<path d="M6.436 0.237999H9.154L10.486 4.324L11.818 0.237999H14.554L12.376 6.178L13.672 9.58L16.876 0.219999H20.098L15.112 13H12.556L10.486 7.996L8.434 13H5.86L0.892 0.219999H4.096L7.318 9.58L8.578 6.178L6.436 0.237999ZM30.7304 10.408V13H21.7484V0.219999H30.5684V2.812H24.7004V5.296H29.7404V7.69H24.7004V10.408H30.7304ZM43.6298 9.724C43.6298 10.456 43.4318 11.068 43.0358 11.56C42.6518 12.04 42.1298 12.4 41.4698 12.64C40.8098 12.88 40.0838 13 39.2918 13H33.0638V0.219999H40.1738C40.7738 0.219999 41.2898 0.381999 41.7218 0.705999C42.1658 1.018 42.5018 1.426 42.7298 1.93C42.9698 2.434 43.0898 2.956 43.0898 3.496C43.0898 4.096 42.9338 4.672 42.6218 5.224C42.3098 5.764 41.8538 6.172 41.2538 6.448C41.9858 6.664 42.5618 7.048 42.9818 7.6C43.4138 8.152 43.6298 8.86 43.6298 9.724ZM40.6238 9.13C40.6238 8.854 40.5698 8.614 40.4618 8.41C40.3538 8.194 40.2098 8.026 40.0298 7.906C39.8618 7.774 39.6578 7.708 39.4178 7.708H36.0158V10.498H39.2918C39.5438 10.498 39.7658 10.438 39.9578 10.318C40.1618 10.198 40.3238 10.036 40.4438 9.832C40.5638 9.628 40.6238 9.394 40.6238 9.13ZM36.0158 2.74V5.386H38.9138C39.1298 5.386 39.3278 5.338 39.5078 5.242C39.6998 5.146 39.8558 5.002 39.9758 4.81C40.0958 4.606 40.1558 4.354 40.1558 4.054C40.1558 3.766 40.1018 3.526 39.9938 3.334C39.8978 3.142 39.7658 2.998 39.5978 2.902C39.4298 2.794 39.2378 2.74 39.0218 2.74H36.0158Z" fill="#4D5AE5"/>
</svg>
